# xmcd
#
# Track frame offsets:
#	150
#	13612
#	25946
#	39957
#	53368
#	65894
#	79891
#	94480
#	105926
#	117725
#	128546
#	139628
#	152401
#	165961
#	179239
#	188975
#	199790
#	210507
#	225062
#	236447
#
# Disc length: 3313 seconds
#
# Revision: 0
# Processed by: cddbd v1.5.2PL0 Copyright (c) Steve Scherf et al.
# Submitted via: EasyCDDAExtractor 12.0.2.1
#
DISCID=fc0cef14
DTITLE=Various Artist - The Rat Pack 100 Hits Cd5
DYEAR=2006
DGENRE=blues
TTITLE0=Sammy Davis Jr - Love Me Or Leave Me
TTITLE1=Frank Sinatra - There Are Things
TTITLE2=Dean Martin and Jerry Lewis - That Certain Party
TTITLE3=Frank Sinatra - You Make Me Feel So Young
TTITLE4=Sammy Davis Jr - Can't You See I've Got The Blues
TTITLE5=Dean Martin - Bye Bye Blackbird
TTITLE6=Frank Sinatra - Where Or When
TTITLE7=Dean Martin - Happy Feet
TTITLE8=Frank Sinatra - The Girl Next Door
TTITLE9=Sammy Davis Jr - I Ain't Got Nobody
TTITLE10=Frank Sinatra - I Wish I Were In Love Again
TTITLE11=Dean Martin - I Got The Sun In The Morning
TTITLE12=Frank Sinatra - Learnign The Blues
TTITLE13=Dean Martin - In The Cool, Coo, Cool Of The Evening
TTITLE14=Sammy Davis Jr - We're Gonna Roll
TTITLE15=Frank Sinatra - Jeepers Creepers
TTITLE16=Frank Sinatra - Mambo Italiano
TTITLE17=Frank Sinatra - Just One Of Those Things
TTITLE18=Dean Martin - Powder Your Face With Sunshine (Smile! Smile! Smile!)
TTITLE19=Frank Sinatra - Anything Goes
EXTD=
EXTT0=
EXTT1=
EXTT2=
EXTT3=
EXTT4=
EXTT5=
EXTT6=
EXTT7=
EXTT8=
EXTT9=
EXTT10=
EXTT11=
EXTT12=
EXTT13=
EXTT14=
EXTT15=
EXTT16=
EXTT17=
EXTT18=
EXTT19=
PLAYORDER=
